<?xml version="1.0" encoding="UTF-8"?>
<svg xmlns="http://www.w3.org/2000/svg" viewBox="0 0 1024 1024">
  <defs>
    <linearGradient id="bg" x1="0" y1="0" x2="1" y2="1">
      <stop offset="0" stop-color="#819CFF"/>
      <stop offset=".34" stop-color="#A98CFF"/>
      <stop offset=".68" stop-color="#D89BEA"/>
      <stop offset="1" stop-color="#FFB77E"/>
    </linearGradient>
    <linearGradient id="glass" x1=".05" y1=".02" x2=".96" y2=".98">
      <stop offset="0" stop-color="#FFFFFF" stop-opacity=".72"/>
      <stop offset=".42" stop-color="#F6F1FF" stop-opacity=".50"/>
      <stop offset="1" stop-color="#FFF0E8" stop-opacity=".36"/>
    </linearGradient>
    <linearGradient id="glassBack" x1=".1" y1="0" x2=".9" y2="1">
      <stop offset="0" stop-color="#FFFFFF" stop-opacity=".28"/>
      <stop offset="1" stop-color="#FFFFFF" stop-opacity=".08"/>
    </linearGradient>
    <linearGradient id="train" x1=".1" y1=".1" x2=".9" y2=".9">
      <stop offset="0" stop-color="#FFFFFF" stop-opacity=".94"/>
      <stop offset=".52" stop-color="#FBF8FF" stop-opacity=".80"/>
      <stop offset="1" stop-color="#FFE8E3" stop-opacity=".62"/>
    </linearGradient>
    <filter id="glow" x="-40%" y="-40%" width="180%" height="180%">
      <feGaussianBlur stdDeviation="24"/>
    </filter>
    <filter id="shadow" x="-30%" y="-30%" width="160%" height="160%">
      <feDropShadow dx="0" dy="20" stdDeviation="20" flood-color="#FFFFFF" flood-opacity=".24"/>
      <feDropShadow dx="0" dy="12" stdDeviation="18" flood-color="#6F62DE" flood-opacity=".22"/>
    </filter>
  </defs>

  <rect width="1024" height="1024" rx="214" fill="url(#bg)"/>
  <ellipse cx="270" cy="490" rx="330" ry="350" fill="#6E8FFF" opacity=".22" filter="url(#glow)"/>
  <ellipse cx="780" cy="610" rx="300" ry="300" fill="#FFB37F" opacity=".18" filter="url(#glow)"/>

  <g transform="translate(135 168)" filter="url(#shadow)">
    <g transform="rotate(-10 375 300)">
      <rect x="92" y="52" width="610" height="300" rx="70" fill="url(#glassBack)" stroke="#FFFFFF" stroke-opacity=".42" stroke-width="4"/>
    </g>

    <path d="M76 192
             C76 158 104 130 138 130
             H680
             C714 130 742 158 742 192
             V312
             C704 318 676 349 676 386
             C676 423 704 454 742 460
             V574
             C742 608 714 636 680 636
             H138
             C104 636 76 608 76 574
             V460
             C114 454 142 423 142 386
             C142 349 114 318 76 312
             Z"
          fill="url(#glass)"
          stroke="#FFFFFF"
          stroke-opacity=".78"
          stroke-width="4"/>

    <path d="M79 199 C80 164 108 138 140 138 H678 C710 138 737 164 739 199"
          fill="none" stroke="#FFFFFF" stroke-opacity=".30" stroke-width="5"/>

    <g stroke="#978BEA" stroke-width="15" stroke-linecap="round" opacity=".75">
      <line x1="196" y1="154" x2="196" y2="184"/>
      <line x1="196" y1="213" x2="196" y2="243"/>
      <line x1="196" y1="272" x2="196" y2="302"/>
      <line x1="196" y1="331" x2="196" y2="361"/>
      <line x1="196" y1="390" x2="196" y2="420"/>
      <line x1="196" y1="449" x2="196" y2="479"/>
      <line x1="196" y1="508" x2="196" y2="538"/>
      <line x1="196" y1="567" x2="196" y2="597"/>
    </g>

    <g fill="#FFFFFF" opacity=".60">
      <rect x="250" y="208" width="192" height="38" rx="19"/>
      <rect x="250" y="268" width="136" height="34" rx="17"/>
    </g>

    <g transform="translate(318 334) rotate(-8 210 120)">
      <path d="M0 149
               C30 75 107 27 188 20
               H337
               C372 20 396 29 425 47
               L500 96
               C517 107 527 124 527 145
               H0 Z"
            fill="url(#train)"
            stroke="#FFFFFF"
            stroke-opacity=".42"
            stroke-width="3"/>

      <path d="M35 116
               C67 73 112 49 170 43
               H334
               C361 43 381 50 404 65
               L438 88
               C410 89 386 94 365 103
               H111
               C83 103 57 107 35 116 Z"
            fill="#D7CBF7" opacity=".48"/>

      <path d="M53 112
               C70 78 105 58 137 53
               C158 50 179 54 192 62
               L193 91
               H91
               C75 91 62 99 53 112 Z"
            fill="#9C90E7" opacity=".72"/>

      <g fill="#AC9BEA" opacity=".66">
        <rect x="254" y="66" width="47" height="43" rx="9"/>
        <rect x="311" y="68" width="45" height="42" rx="9"/>
        <rect x="366" y="71" width="42" height="40" rx="9"/>
        <rect x="417" y="74" width="39" height="38" rx="9"/>
        <rect x="464" y="78" width="34" height="36" rx="9"/>
      </g>

      <path d="M18 150 C139 154 305 154 514 145"
            fill="none" stroke="#FFFFFF" stroke-opacity=".62" stroke-width="8" stroke-linecap="round"/>

      <path d="M4 171 C113 129 285 105 518 127"
            fill="none" stroke="#F3C8E5" stroke-opacity=".72" stroke-width="7" stroke-linecap="round"/>

      <path d="M9 178 C112 164 233 164 353 178 C414 185 467 187 518 182"
            fill="none" stroke="#FFFFFF" stroke-opacity=".35" stroke-width="5" stroke-linecap="round"/>
    </g>
  </g>

  <rect x="4" y="4" width="1016" height="1016" rx="210" fill="none" stroke="#FFFFFF" stroke-opacity=".58" stroke-width="6"/>
</svg>